<?xml version="1.0" standalone="no"?><!DOCTYPE svg PUBLIC "-//W3C//DTD SVG 1.1//EN" "http://www.w3.org/Graphics/SVG/1.1/DTD/svg11.dtd"><svg class="icon" width="200px" height="200.00px" viewBox="0 0 1024 1024" version="1.1" xmlns="http://www.w3.org/2000/svg"><path d="M794.571059 153.512085c55.082639 56.201555 63.810184 140.599794 26.630202 205.720708l-231.775467-236.442946c65.856202-35.901221 150.030658-25.479317 205.145265 30.722238z" fill="#FFB578" /><path d="M589.425794 122.789847l231.775467 236.442946c-7.704536 13.5229-17.391152 26.214605-29.059848 37.627549a172.770229 172.770229 0 0 1-38.202991 28.32456l-231.775467-236.442946c7.704536-13.5229 17.391152-26.214605 29.059848-37.659517 11.668696-11.412944 24.520246-20.875777 38.202991-28.292592z" fill="#FF4893" /><path d="M522.162955 188.741956l231.775467 236.442946c-41.303987 22.474228-89.801005 26.790047-133.822359 12.979426-26.182636-8.184072-50.76682-22.793918-71.322906-43.733633a171.162187 171.162187 0 0 1-42.390934-72.409853c-12.819581-44.213168-7.512722-92.518373 15.760732-133.278886z" fill="#FFB578" /><path d="M620.116063 438.164328l-0.063938 0.223784-354.440636 325.28488-91.62324-93.445475 332.094284-348.110768 0.31969-0.095907a171.162187 171.162187 0 0 0 42.390934 72.409853c20.556086 20.939715 45.14027 35.549561 71.322906 43.733633z" fill="#5FCEFF" /><path d="M671.714077 468.432606a194.486791 194.486791 0 0 1-58.295526-8.916163c-30.274671-9.459636-58.148469-26.550279-80.593925-49.408135a194.656227 194.656227 0 0 1-47.911985-81.853505c-14.593862-50.325647-8.097755-105.222865 17.81634-150.609297a194.582698 194.582698 0 0 1 32.822603-42.541188c13.049758-12.75884 27.576485-23.513222 43.209341-31.991409 28.311773-15.434648 60.45983-23.605932 92.914789-23.605931 52.668977 0 101.9876 20.715931 138.873466 58.333889 60.578115 61.805726 72.95013 157.405913 30.086055 232.481983a193.518129 193.518129 0 0 1-32.844982 42.531597 195.365939 195.365939 0 0 1-43.151797 31.978621c-28.36612 15.441041-60.498192 23.599538-92.924379 23.599538z m-0.038363-344.165789c-24.993388 0-49.73422 6.281914-71.537098 18.171196-12.033143 6.524879-23.209516 14.808055-33.266973 24.644925a149.56391 149.56391 0 0 0-25.261927 32.739484c-19.955069 34.948544-24.948631 77.211601-13.711517 115.967656a149.854828 149.854828 0 0 0 36.866685 62.966202c17.295245 17.614936 38.746464 30.773388 62.029509 38.049539a149.851631 149.851631 0 0 0 44.922881 6.870145 150.062627 150.062627 0 0 0 71.527508-18.148818 150.593313 150.593313 0 0 0 33.250988-24.667304 148.787063 148.787063 0 0 0 25.261927-32.707515c33.00163-57.803203 23.471662-131.392713-23.167956-178.975417-28.398089-28.960744-66.367706-44.910093-106.914027-44.910093z" fill="#4F46A3" /><path d="M783.289189 461.063744h-0.006394c-16.460854 0-31.873123-6.480122-43.385171-18.244725l-1.902157-1.930929-233.767138-238.466586c-23.468465-23.925622-23.088033-62.461091 0.824801-85.919965l12.512678-12.253729a60.344741 60.344741 0 0 1 42.496432-17.355986c16.460854 0 31.866729 6.473729 43.372383 18.231937l1.937323 1.966096 233.763941 238.463388c23.45248 23.960788 23.065655 62.486666-0.827998 85.919965l-12.53186 12.244139a60.331953 60.331953 0 0 1-42.48684 17.346395zM560.059043 131.645269a15.859836 15.859836 0 0 0-11.166782 4.56198l-12.509482 12.253729a15.997303 15.997303 0 0 0-0.22698 22.592514l1.959702 1.99167 233.715987 238.415436a15.888608 15.888608 0 0 0 11.451307 4.843308h0.003197a15.856639 15.856639 0 0 0 11.179569-4.571572l12.535057-12.244138c6.259536-6.141251 6.35864-16.288221 0.191814-22.589317l-1.943717-1.975686-233.751153-238.447404a15.843851 15.843851 0 0 0-11.438519-4.83052zM265.614686 786.051313a22.301595 22.301595 0 0 1-15.981318-6.713497l-91.62324-93.445474a22.378321 22.378321 0 0 1-0.214193-31.11226l332.094284-348.110768a22.378321 22.378321 0 1 1 32.38143 30.894871L205.122887 670.013325l61.313403 62.534619 338.484893-310.646261a22.378321 22.378321 0 0 1 30.26508 32.972857l-354.440635 325.284881a22.307989 22.307989 0 0 1-15.130942 5.891892z" fill="#4F46A3" /><path d="M415.805189 547.178721a22.298398 22.298398 0 0 1-15.984515-6.716694 22.375124 22.375124 0 0 1 0.316493-31.642945l72.345915-70.907309a22.378321 22.378321 0 0 1 31.329649 31.962636l-72.345914 70.907309a22.304792 22.304792 0 0 1-15.661628 6.397003zM287.471912 942.840224c-0.463551 0-0.920708 0-1.384259-0.006394-35.993931-0.358053-69.695682-14.712148-94.893672-40.415248-24.868708-25.38341-38.561044-58.899741-38.561044-94.375773 0-36.492648 14.363685-70.664344 40.44402-96.223584a22.378321 22.378321 0 0 1 31.646142 0.31969 22.375124 22.375124 0 0 1-0.31969 31.642946c-17.419924 17.074659-27.01383 39.894153-27.01383 64.260948 0 23.692248 9.152733 46.083357 25.770235 63.04932 16.8253 17.157778 39.334695 26.74529 63.378602 26.985059 24.037514 0.214193 46.748313-8.900178 63.918878-25.738266l236.829772-232.162293a22.378321 22.378321 0 0 1 31.329649 31.962636l-236.826574 232.159096c-25.380213 24.884693-58.829409 38.541863-94.318229 38.541863z" fill="#4F46A3" /><path d="M761.038744 839.247779a22.378321 22.378321 0 0 1-15.674416-38.350049c17.40394-17.08425 26.991452-39.929318 26.991452-64.334476a89.404589 89.404589 0 0 0-25.728675-62.969398c-16.838088-17.183354-39.344285-26.774063-63.388193-27.01383l-0.923905-0.003197c-23.701839 0-46.0386 9.117567-62.99817 25.731872a22.381518 22.381518 0 0 1-31.323256-31.96903c25.38341-24.871905 58.832606-38.519484 94.311836-38.519484 0.463551 0 0.920708 0 1.387456 0.006394 36.000325 0.358053 69.705273 14.718541 94.900065 40.431232 24.839936 25.322669 38.525878 58.816621 38.525878 94.305441 0 36.518223-14.347701 70.709101-40.399263 96.277931a22.336761 22.336761 0 0 1-15.680809 6.406594z" fill="#4F46A3" /></svg>