<?xml version="1.0" standalone="no"?><!DOCTYPE svg PUBLIC "-//W3C//DTD SVG 1.1//EN" "http://www.w3.org/Graphics/SVG/1.1/DTD/svg11.dtd"><svg class="icon" width="200px" height="195.42px" viewBox="0 0 1048 1024" version="1.1" xmlns="http://www.w3.org/2000/svg"><path d="M897.382953 128.420008h151.612645v40.976391h-151.612645zM0 128.420008h495.814326v40.976391H0zM770.356142 390.668908h278.639456v40.97639h-278.639456zM0 390.668908h495.814326v40.97639H0zM733.477391 636.527251h315.518207v40.97639h-315.518207zM0 636.527251h131.12445v40.97639H0z" fill="#6E6E96" /><path d="M440.598639 786.234494m-192.691476 0a192.691477 192.691477 0 1 0 385.382953 0 192.691477 192.691477 0 1 0-385.382953 0Z" fill="#FF9696" /><path d="M440.598639 999.414166c-117.548972 0-213.179672-95.634798-213.179671-213.179672s95.6307-213.175574 213.179671-213.175574c117.548972 0 213.179672 95.6307 213.179672 213.175574S558.147611 999.414166 440.598639 999.414166z m0-385.382954c-94.95459 0-172.203281 77.252789-172.203281 172.199184 0 94.95459 77.248691 172.203281 172.203281 172.203281 94.950492 0 172.203281-77.252789 172.203282-172.203281 0-94.946395-77.252789-172.199184-172.203282-172.199184z" fill="#6E6E96" /><path d="M633.290116 786.234494V196.481793L792.893157 36.878752v217.994397l-159.603041 159.603041" fill="#FF9696" /><path d="M653.778311 786.234494h-40.97639V196.481793c0-5.433469 2.155358-10.645666 6.003041-14.489252l159.603041-159.603041A20.488195 20.488195 0 0 1 813.381353 36.878752v217.994397a20.475902 20.475902 0 0 1-6.003042 14.489252l-153.6 153.604098v363.267995z m0-581.266491v160.045586l118.626651-118.62665V86.341353l-118.626651 118.62665z" fill="#6E6E96" /><path d="M431.866571 661.154062c75.929252 0 137.705258 54.265034 137.705258 120.974597S507.795822 903.119648 431.866571 903.119648s-137.705258-54.273229-137.705258-120.982793 61.776006-120.982793 137.705258-120.982793z m-199.169844 120.982793c0 100.605234 89.34902 182.447379 199.169844 182.447379S631.036415 882.742089 631.036415 782.136855c0-100.601136-89.34902-182.439184-199.169844-182.439184s-199.169844 81.838047-199.169844 182.439184z" fill="#6E6E96" /><path d="M618.804962 349.995742L779.534854 189.269948l28.970308 28.970308-160.725794 160.729892z" fill="#6E6E96" /><path d="M397.77559 758.955416a32.777015 42.0008 76.768 1 0-15.004963-63.81365 32.777015 42.0008 76.768 1 0 15.004963 63.81365Z" fill="#FFFFFF" /></svg>